<svg width="121" height="95" viewBox="0 0 121 95" fill="none" xmlns="http://www.w3.org/2000/svg">
<path d="M114.419 44.8465L99.0598 42.2974L88.0023 22.7826C85.0153 17.5257 79.3327 14.2245 73.3505 14.2245H60.7122C58.6488 14.2245 56.9764 15.9044 56.9764 17.977V55.3352C56.9764 58.1684 54.6884 60.4751 51.8595 60.4751H3.73575C1.67235 60.4667 0 62.1466 0 64.2192V75.6273C0 77.8754 1.64739 79.5302 3.73575 79.5302H10.9077C11.6565 88.2388 18.8285 94.9916 27.6479 94.9916C36.4672 94.9916 43.6392 88.0883 44.2383 79.5302H77.028C77.7768 88.2388 84.9488 94.9916 93.7681 94.9916C102.588 94.9916 109.759 88.0883 110.508 79.5302H113.512C117.639 79.5302 120.983 76.1705 120.983 72.0252V52.3515C120.85 48.599 118.005 45.4482 114.419 44.8465ZM27.6562 88.2889C22.0068 88.2889 17.5888 83.8511 17.5888 78.1763C17.5888 72.5015 22.0068 68.0637 27.6562 68.0637C33.3056 68.0637 37.7236 72.5015 37.7236 78.1763C37.7236 83.7591 33.2057 88.2889 27.6562 88.2889ZM68.4249 41.8461C67.9757 41.8461 67.6761 41.5453 67.6761 41.0939V25.6325C67.6761 25.1812 67.9757 24.8804 68.4249 24.8804H73.2007C75.4388 24.8804 77.6853 26.0838 78.7336 28.1816L85.9056 40.7931C86.2051 41.2444 85.9056 41.8461 85.3065 41.8461H68.4249ZM93.7765 88.2889C88.1271 88.2889 83.7091 83.8511 83.7091 78.1763C83.7091 72.5015 88.1271 68.0637 93.7765 68.0637C99.4258 68.0637 103.844 72.5015 103.844 78.1763C103.844 83.7591 99.326 88.2889 93.7765 88.2889Z" fill="#4D6BFC"/>
<path d="M27.6561 85.7817C31.8376 85.7817 35.2274 82.3766 35.2274 78.1763C35.2274 73.976 31.8376 70.571 27.6561 70.571C23.4746 70.571 20.0847 73.976 20.0847 78.1763C20.0847 82.3766 23.4746 85.7817 27.6561 85.7817Z" fill="#4D6BFC"/>
<path d="M93.7766 85.7817C97.9581 85.7817 101.348 82.3766 101.348 78.1763C101.348 73.976 97.9581 70.571 93.7766 70.571C89.595 70.571 86.2052 73.976 86.2052 78.1763C86.2052 82.3766 89.595 85.7817 93.7766 85.7817Z" fill="#4D6BFC"/>
<path d="M54.5054 12.7118V3.40987C54.5054 1.52107 52.9828 0 51.1108 0H5.84916C3.9688 0 2.44622 1.52943 2.44622 3.40987V12.7118H54.5054Z" fill="#4D6BFC"/>
<path d="M54.4971 22.6322H2.44622V35.344H54.4971V22.6322Z" fill="#4D6BFC"/>
<path d="M2.44622 45.2727V54.5747C2.44622 56.4635 3.9688 57.9845 5.84084 57.9845H51.0942C52.9745 57.9845 54.4888 56.4551 54.4888 54.5747V45.2727H2.44622Z" fill="#4D6BFC"/>
</svg>
