<svg version="1.1" id="Layer_1" xmlns="http://www.w3.org/2000/svg" x="0" y="0" viewBox="0 0 333.19 53.85" xml:space="preserve"><path class="st0" d="M112.82 17.22c0 .83-.17 1.66-.5 2.4l-9.78 24.12-9.86-23.29c-.75-1.74-1.16-2.98-1.16-3.89 0-.41.08-.99.25-1.66H68.16c1.33 1.41 2.15 2.98 2.65 4.23l15.25 34.72h20.8l12.6-30.91c1.41-3.4 1.74-4.31 4.39-8.04h-11.52c.33.83.49 1.58.49 2.32M55.23 14.9H31.99V21.14H21.13V32H14.2v10.1c0 8.12 2.49 11.77 11.27 11.77h38.95l1.49-9.28c-3.15 1.41-5.14 1.66-8.87 1.66h-18.8c-3.15 0-4.39-1.16-4.47-3.98V38.6H66.5V26.67c0-8.12-2.49-11.77-11.27-11.77m-7.79 16.08H33.76v-5.3c0-2.24.66-3.15 2.82-3.15h8.04c2.15 0 2.82.91 2.82 3.15v5.3zM211.78 46.23c-3.48 0-3.9-.66-3.9-3.15V22.53h15.58V14.9h-15.58V6.45l-19.56.5v7.96h-8.37v7.62h8.37v19.14c0 9.7 5.39 12.18 11.6 12.18h24.53l1.24-9.12c-.91.41-3.23 1.49-7.04 1.49h-6.87zM165.78 14.9h-29.75c-8.79 0-11.27 3.65-11.27 11.77v15.41c0 8.12 2.49 11.77 11.27 11.77h38.95l1.49-9.28c-3.15 1.41-5.14 1.66-8.87 1.66h-18.81c-3.15 0-4.39-1.16-4.47-3.98V38.6h32.73V26.67c0-8.12-2.48-11.77-11.27-11.77m-7.79 16.08h-13.67v-5.3c0-2.24.66-3.15 2.82-3.15h8.04c2.15 0 2.82.91 2.82 3.15v5.3zM283.14.82h-21.71c1.16 1.99 2.15 3.56 2.15 8.95V44.9c0 5.39-.99 6.96-2.15 8.95h23.87c-1.16-1.99-2.15-3.56-2.15-8.95V.82zM326.15 46.23h-6.88c-3.48 0-3.89-.66-3.89-3.15V22.53h15.58V14.9h-15.58V6.45l-19.56.5v7.96h-8.37v7.62h8.37v19.14c0 9.7 5.39 12.18 11.6 12.18h24.53l1.24-9.12c-.91.42-3.23 1.5-7.04 1.5M232.83 39.93h19.56v13.92h-19.56z"/><path class="st0" d="M30.06 10.86H19.21V0h-8.35v10.86H0v8.35h10.86v10.85h8.35V19.21h10.85z"/></svg>