<svg width="96" height="111" viewBox="0 0 96 111" fill="none" xmlns="http://www.w3.org/2000/svg">
<g clip-path="url(#clip0)">
<path d="M78.994 5.86028C81.5132 5.86028 84.0614 7.30811 84.0614 10.5512C84.0614 13.9874 81.1658 16.3908 77.0346 16.3908H59.2746L59.9213 15.9661L65.9346 12.028L67.2956 11.1304C71.4267 8.41811 75.2876 5.86028 78.994 5.86028ZM16.5638 5.86028C20.2702 5.86028 24.1311 8.41811 28.2622 11.1304L29.6232 12.028L35.6365 15.9661L36.2832 16.3908H18.5232C14.392 16.3908 11.4964 13.9874 11.4964 10.5512C11.4964 7.30811 14.0446 5.86028 16.5638 5.86028ZM78.994 0.0689783C72.9711 0.0593262 67.7589 3.86228 62.7398 7.17298L47.7789 16.9892L32.818 7.17298C27.7989 3.86228 22.5867 0.0593262 16.5638 0.0593262C10.5408 0.0593262 5.70508 4.31593 5.70508 10.5512C5.70508 17.0954 11.0717 22.2014 18.5232 22.2014H77.0346C84.4861 22.2014 89.8527 17.1147 89.8527 10.6188C89.8527 4.31593 84.9398 0.0593262 78.994 0.0593262V0.0689783Z" fill="#4D6BFC"/>
<path d="M38.1848 44.6606H2.89648V108.037C2.89648 108.805 3.20156 109.541 3.7446 110.084C4.28764 110.627 5.02416 110.932 5.79214 110.932H38.1848V44.6606Z" fill="#4D6BFC"/>
<path d="M56.6035 44.6606V110.942H89.7684C90.5364 110.942 91.2729 110.637 91.8159 110.094C92.359 109.551 92.664 108.814 92.664 108.046V44.6606H56.6035Z" fill="#4D6BFC"/>
<path d="M38.184 22.2017H2.89565C2.12768 22.2017 1.39116 22.5067 0.848117 23.0498C0.305077 23.5928 0 24.3293 0 25.0973L0 41.7087H38.184V22.2017Z" fill="#4D6BFC"/>
<path d="M92.664 22.2017H56.6035V41.7087H95.5597V25.0973C95.5597 24.3293 95.2546 23.5928 94.7116 23.0498C94.1685 22.5067 93.432 22.2017 92.664 22.2017Z" fill="#4D6BFC"/>
</g>
<defs>
<clipPath id="clip0">
<rect width="95.5565" height="111" fill="white"/>
</clipPath>
</defs>
</svg>
