<svg width="106" height="111" viewBox="0 0 106 111" fill="none" xmlns="http://www.w3.org/2000/svg">
<g clip-path="url(#clip0)">
<path d="M52.5135 14.6598C44.4291 14.6388 36.5201 17.0171 29.7881 21.4935C23.0561 25.9699 17.8036 32.3432 14.6958 39.8065C11.5879 47.2697 10.7644 55.4873 12.3295 63.4188C13.8946 71.3504 17.7779 78.6392 23.4878 84.3625C29.1977 90.0857 36.4774 93.9861 44.4052 95.5698C52.3331 97.1534 60.5526 96.3491 68.0231 93.2588C75.4936 90.1684 81.8792 84.9309 86.3713 78.2093C90.8635 71.4878 93.2603 63.5844 93.2582 55.5C93.2554 44.6859 88.9648 34.3141 81.3271 26.6584C73.6893 19.0027 63.3276 14.6879 52.5135 14.6598ZM80.2 50.0475L66.5265 60.0083C66.1544 60.294 65.8815 60.6894 65.7464 61.1386C65.6113 61.5878 65.6207 62.0682 65.7733 62.5117L70.9924 78.6144C71.1356 79.0642 71.1337 79.5475 70.9869 79.9961C70.8401 80.4447 70.5559 80.8357 70.1746 81.1138C69.7932 81.3919 69.334 81.543 68.862 81.5456C68.3901 81.5483 67.9292 81.4023 67.5448 81.1285L53.8289 71.1677C53.4453 70.8931 52.9853 70.7454 52.5135 70.7454C52.0417 70.7454 51.5817 70.8931 51.1981 71.1677L37.5352 81.1285C37.1508 81.4023 36.69 81.5483 36.218 81.5456C35.746 81.543 35.2868 81.3919 34.9055 81.1138C34.5241 80.8357 34.24 80.4447 34.0932 79.9961C33.9464 79.5475 33.9445 79.0642 34.0877 78.6144L39.3068 62.5117C39.4538 62.0628 39.455 61.5788 39.3101 61.1291C39.1653 60.6794 38.8819 60.2871 38.5006 60.0083L24.8271 50.0475C24.4433 49.7702 24.1575 49.3782 24.0105 48.9281C23.8636 48.478 23.8632 47.9929 24.0094 47.5425C24.1556 47.0922 24.4408 46.6998 24.8241 46.4218C25.2074 46.1438 25.6689 45.9945 26.1424 45.9953H43.0407C43.5128 45.9953 43.9727 45.8453 44.354 45.5669C44.7354 45.2886 45.0184 44.8963 45.1623 44.4466L50.3813 28.3439C50.5307 27.8996 50.8159 27.5133 51.1965 27.2397C51.5772 26.9661 52.0341 26.8189 52.5029 26.8189C52.9717 26.8189 53.4286 26.9661 53.8093 27.2397C54.1899 27.5133 54.4751 27.8996 54.6245 28.3439L59.8435 44.4466C59.9874 44.8963 60.2704 45.2886 60.6518 45.5669C61.0331 45.8453 61.493 45.9953 61.9651 45.9953H78.8846C79.3581 45.9945 79.8196 46.1438 80.2029 46.4218C80.5862 46.6998 80.8714 47.0922 81.0176 47.5425C81.1638 47.9929 81.1634 48.478 81.0165 48.9281C80.8696 49.3782 80.5837 49.7702 80.2 50.0475Z" fill="#4D6BFC"/>
<path d="M104.4 64.0126C103.745 58.3741 103.745 52.6787 104.4 47.0401L104.951 42.2454C105.1 40.9878 104.975 39.713 104.585 38.5082C104.195 37.3034 103.549 36.1972 102.692 35.2654L99.5093 31.7754C95.6611 27.5817 92.3147 22.9537 89.538 17.9853L87.2148 13.8482C86.5971 12.7449 85.7485 11.788 84.7269 11.0429C83.7053 10.2977 82.5349 9.78198 81.2957 9.53081L76.6494 8.59732C71.0686 7.50487 65.6355 5.76029 60.4619 3.39948L56.2187 1.41582C55.0712 0.886762 53.8226 0.612793 52.559 0.612793C51.2954 0.612793 50.0469 0.886762 48.8993 1.41582L44.5501 3.39948C39.3924 5.77536 33.9736 7.5377 28.405 8.65036L23.7588 9.58385C22.5195 9.83501 21.3491 10.3508 20.3275 11.0959C19.306 11.841 18.4573 12.798 17.8396 13.9012L15.5165 18.0383C12.7397 23.0068 9.39333 27.6347 5.54511 31.8285L2.36276 35.3185C1.50488 36.2405 0.855326 37.3363 0.458157 38.5315C0.0609882 39.7266 -0.074508 40.9932 0.0608584 42.2454L0.612466 46.9659C1.2669 52.6044 1.2669 58.2998 0.612466 63.9384L0.0608584 68.765C-0.0879527 70.0225 0.0369197 71.2974 0.426915 72.5021C0.816911 73.7069 1.46281 74.8131 2.32033 75.7449L5.50268 79.2349C9.3509 83.4286 12.6973 88.0566 15.474 93.0251L17.7972 97.1621C18.4149 98.2654 19.2635 99.2223 20.2851 99.9675C21.3067 100.713 22.4771 101.228 23.7163 101.48L28.3626 102.413C33.9334 103.543 39.3522 105.323 44.5077 107.717L48.8145 109.701C49.962 110.23 51.2106 110.504 52.4742 110.504C53.7378 110.504 54.9864 110.23 56.1339 109.701L60.4619 107.611C65.6173 105.217 71.0362 103.437 76.607 102.307L81.2532 101.373C82.4925 101.122 83.6629 100.606 84.6845 99.8614C85.706 99.1162 86.5547 98.1593 87.1724 97.056L89.4955 92.919C92.2723 87.9505 95.6187 83.3226 99.4669 79.1288L102.649 75.6388C103.5 74.7229 104.145 73.6359 104.542 72.4504C104.939 71.265 105.079 70.0085 104.951 68.765L104.4 64.0126ZM52.506 99.5277C43.787 99.5487 35.2579 96.982 27.9986 92.1526C20.7392 87.3232 15.0762 80.4483 11.7265 72.3985C8.37678 64.3486 7.49107 55.4858 9.1815 46.9323C10.8719 38.3787 15.0625 30.5191 21.2225 24.3487C27.3826 18.1782 35.2351 13.9744 43.7858 12.2695C52.3365 10.5647 61.2008 11.4354 69.2563 14.7715C77.3118 18.1076 84.1962 23.7591 89.0378 31.0102C93.8794 38.2614 96.4605 46.7862 96.4543 55.5052C96.4487 67.1661 91.819 78.3489 83.5804 86.6014C75.3419 94.8538 64.1669 99.5024 52.506 99.5277Z" fill="#4D6BFC"/>
</g>
<defs>
<clipPath id="clip0">
<rect width="105.505" height="111" fill="white"/>
</clipPath>
</defs>
</svg>
