<svg width="96" height="111" viewBox="0 0 96 111" fill="none" xmlns="http://www.w3.org/2000/svg">
<g clip-path="url(#clip0)">
<path d="M91.6957 11.3342C76.2522 10.784 61.3203 6.95208 49.6701 0.494775C49.0924 0.170071 48.4409 -0.000488281 47.7783 -0.000488281C47.1156 -0.000488281 46.4641 0.170071 45.8864 0.494775C34.2363 6.95208 19.3044 10.784 3.86087 11.3342C2.82639 11.3643 1.84441 11.7966 1.12351 12.5391C0.4026 13.2816 -0.000435252 14.276 3.81887e-06 15.3109V69.6237C-0.00266652 74.7021 1.39514 79.683 4.03971 84.0185C6.68428 88.3541 10.4732 91.8764 14.9898 94.1981L47.7783 111.003L80.5957 94.1981C85.1069 91.8724 88.8899 88.3484 91.5292 84.0132C94.1685 79.6779 95.5619 74.6991 95.5565 69.6237V15.3109C95.557 14.276 95.1539 13.2816 94.433 12.5391C93.7121 11.7966 92.7301 11.3643 91.6957 11.3342ZM89.273 69.6237C89.2808 73.5448 88.2028 77.3916 86.1584 80.7376C84.114 84.0836 81.183 86.7982 77.6904 88.5806L48.4443 103.58C48.2387 103.687 48.0102 103.744 47.7783 103.744C47.5463 103.744 47.3178 103.687 47.1123 103.58L17.8469 88.5806C14.3542 86.7982 11.4232 84.0836 9.37884 80.7376C7.33443 77.3916 6.25641 73.5448 6.26427 69.6237V21.0153C6.26993 20.1497 6.6039 19.3186 7.19872 18.6897C7.79353 18.0608 8.60486 17.6812 9.46879 17.6274C22.2998 16.8736 34.826 13.4131 46.2243 7.4733C46.705 7.22606 47.2377 7.09708 47.7783 7.09708C48.3188 7.09708 48.8516 7.22606 49.3323 7.4733C60.7247 13.4104 73.2441 16.8709 86.0685 17.6274C86.9324 17.6812 87.7437 18.0608 88.3385 18.6897C88.9333 19.3186 89.2673 20.1497 89.273 21.0153V69.6237Z" fill="#4D6BFC"/>
<path d="M85.909 20.5354C72.6732 19.7624 59.7514 16.1932 47.9953 10.0628C47.9294 10.0297 47.8567 10.0125 47.783 10.0125C47.7092 10.0125 47.6365 10.0297 47.5706 10.0628C35.814 16.1918 22.8925 19.761 9.65686 20.5354C9.53311 20.5379 9.41527 20.5889 9.32865 20.6773C9.24203 20.7657 9.19353 20.8846 9.19356 21.0084V69.6167C9.17781 73.007 10.1022 76.3353 11.864 79.232C13.6259 82.1286 16.1562 84.4801 19.1739 86.0254L47.783 100.639L76.3823 85.9771C79.4001 84.4319 81.9304 82.0803 83.6922 79.1837C85.454 76.2871 86.3784 72.9588 86.3627 69.5685V21.0084C86.3605 20.8869 86.3125 20.7707 86.2285 20.6831C86.1444 20.5954 86.0303 20.5427 85.909 20.5354ZM72.396 71.6051C70.1314 74.1994 67.3149 76.254 64.153 77.6184C60.491 79.1688 56.5468 79.9413 52.5704 79.8866C48.6555 79.9227 44.773 79.1744 41.1519 77.6859C37.7167 76.2973 34.6363 74.1568 32.1368 71.4217C29.6987 68.7356 27.8886 65.5407 26.8377 62.0687H19.6372C19.535 62.07 19.4335 62.051 19.3387 62.0127C19.2439 61.9745 19.1577 61.9178 19.085 61.846C19.0122 61.7742 18.9545 61.6886 18.9151 61.5943C18.8757 61.5 18.8554 61.3988 18.8554 61.2965V56.9434C18.8554 56.8412 18.8757 56.74 18.9151 56.6457C18.9545 56.5513 19.0122 56.4658 19.085 56.394C19.1577 56.3221 19.2439 56.2654 19.3387 56.2272C19.4335 56.189 19.535 56.17 19.6372 56.1712H25.7856C25.7257 55.5296 25.6999 54.8852 25.7084 54.2408C25.7002 53.5964 25.726 52.952 25.7856 52.3104H19.6372C19.535 52.3116 19.4335 52.2926 19.3387 52.2544C19.2439 52.2161 19.1577 52.1595 19.085 52.0876C19.0122 52.0158 18.9545 51.9303 18.9151 51.8359C18.8757 51.7416 18.8554 51.6404 18.8554 51.5382V47.1561C18.8554 46.9487 18.9378 46.7499 19.0844 46.6033C19.231 46.4566 19.4299 46.3743 19.6372 46.3743H26.8377C27.8886 42.9022 29.6987 39.7074 32.1368 37.0213C34.6198 34.3092 37.672 32.1799 41.0747 30.786C44.6958 29.2975 48.5783 28.5493 52.4932 28.5853C56.4691 28.5354 60.4124 29.3077 64.0758 30.8536C67.2547 32.1961 70.0962 34.2267 72.396 36.7993C72.5283 36.9538 72.5961 37.1532 72.5853 37.3563C72.5745 37.5593 72.486 37.7505 72.3381 37.89L66.1703 43.6813C66.0993 43.754 66.0145 43.8117 65.9208 43.8512C65.8272 43.8906 65.7266 43.9109 65.625 43.9109C65.5234 43.9109 65.4228 43.8906 65.3291 43.8512C65.2355 43.8117 65.1507 43.754 65.0796 43.6813C63.5716 41.997 61.7232 40.652 59.6566 39.7352C57.59 38.8184 55.3524 38.3507 53.0916 38.363C50.1545 38.3207 47.2603 39.0709 44.7136 40.5347C42.3046 41.9095 40.3439 43.9506 39.067 46.4129H56.161C56.2637 46.4129 56.3654 46.4331 56.4602 46.4724C56.5551 46.5117 56.6413 46.5693 56.7139 46.6419C56.7865 46.7145 56.8441 46.8007 56.8834 46.8955C56.9226 46.9904 56.9429 47.092 56.9429 47.1947V51.5865C56.9429 51.6887 56.9226 51.7899 56.8832 51.8842C56.8438 51.9785 56.786 52.0641 56.7133 52.1359C56.6406 52.2077 56.5543 52.2644 56.4595 52.3026C56.3647 52.3409 56.2633 52.3599 56.161 52.3586H37.3007C37.241 53.0003 37.2153 53.6447 37.2235 54.2891C37.2149 54.9335 37.2407 55.5778 37.3007 56.2195H56.161C56.361 56.2141 56.5553 56.2866 56.703 56.4216C56.8506 56.5566 56.9401 56.7437 56.9525 56.9434V61.3448C56.9525 61.447 56.9322 61.5482 56.8928 61.6425C56.8534 61.7369 56.7957 61.8224 56.723 61.8942C56.6502 61.9661 56.564 62.0228 56.4692 62.061C56.3744 62.0992 56.2729 62.1182 56.1707 62.117H39.067C40.3433 64.5822 42.3039 66.6266 44.7136 68.0048C47.2682 69.4419 50.1611 70.1685 53.0916 70.109C55.3513 70.1354 57.5903 69.676 59.6569 68.7617C61.7236 67.8475 63.5696 66.4998 65.07 64.8099C65.2112 64.6606 65.405 64.572 65.6104 64.563C65.8158 64.554 66.0166 64.6252 66.1703 64.7617L72.3284 70.553C72.467 70.6894 72.5504 70.8721 72.5629 71.0661C72.5753 71.2602 72.5159 71.452 72.396 71.6051Z" fill="#4D6BFC"/>
</g>
<defs>
<clipPath id="clip0">
<rect width="95.5565" height="111" fill="white"/>
</clipPath>
</defs>
</svg>
